M48
; DRILL file {KiCad 9.0.7-1.fc43} date 2026-03-10T00:12:47+0100
; FORMAT={-:-/ absolute / inch / decimal}
; #@! TF.CreationDate,2026-03-10T00:12:47+01:00
; #@! TF.GenerationSoftware,Kicad,Pcbnew,9.0.7-1.fc43
; #@! TF.FileFunction,Plated,1,4,PTH
FMAT,2
INCH
; #@! TA.AperFunction,Plated,PTH,ViaDrill
T1C0.0039
; #@! TA.AperFunction,Plated,PTH,ViaDrill
T2C0.0059
; #@! TA.AperFunction,Plated,PTH,ViaDrill
T3C0.0079
; #@! TA.AperFunction,Plated,PTH,ViaDrill
T4C0.0098
; #@! TA.AperFunction,Plated,PTH,ViaDrill
T5C0.0118
; #@! TA.AperFunction,Plated,PTH,ComponentDrill
T6C0.0236
; #@! TA.AperFunction,Plated,PTH,ComponentDrill
T7C0.0276
; #@! TA.AperFunction,Plated,PTH,ComponentDrill
T8C0.0394
; #@! TA.AperFunction,Plated,PTH,ComponentDrill
T9C0.0433
; #@! TA.AperFunction,Plated,PTH,ComponentDrill
T10C0.0512
; #@! TA.AperFunction,Plated,PTH,ComponentDrill
T11C0.1024
; #@! TA.AperFunction,Plated,PTH,ViaDrill
T12C0.1260
; #@! TA.AperFunction,Plated,PTH,ComponentDrill
T13C0.1280
; #@! TA.AperFunction,Plated,PTH,ComponentDrill
T14C0.1339
%
G90
G05
T1
X1.9715Y2.0157
T2
X1.6043Y1.9193
X1.6161Y1.9035
X1.7028Y1.8445
X1.7224Y1.8839
X1.7303Y1.8465
X1.7648Y1.8061
X1.7787Y1.7922
X1.7894Y1.9941
X1.7926Y1.7783
X1.7933Y2.0374
X1.7933Y1.9744
X1.8065Y1.7643
X1.8091Y2.0965
X1.8169Y2.1161
X1.8287Y2.1693
X1.8451Y2.1775
X1.8628Y2.2441
X1.8709Y2.2638
X1.9134Y2.0177
X1.9134Y1.939
X1.9311Y2.1142
X1.9311Y2.0163
X1.9311Y1.8976
X1.9318Y2.0537
X1.9321Y1.9943
X1.9331Y2.0925
X1.9331Y1.9587
X1.9331Y1.9193
X1.939Y2.1634
X1.9488Y2.0335
X1.9488Y1.9547
X1.9508Y2.0157
X1.9508Y1.8583
X1.9508Y1.8386
X1.9508Y1.8189
X1.9515Y1.8976
X1.9528Y2.1122
X1.9528Y2.0925
X1.9528Y2.0531
X1.9528Y1.998
X1.9528Y1.9744
X1.9685Y1.9547
X1.9705Y1.9764
X1.9705Y1.937
X1.9705Y1.8406
X1.9705Y1.8189
X1.9724Y1.9193
X1.9882Y1.9154
X1.9902Y2.1654
X1.9919Y2.058
X1.9921Y2.0925
X2.0085Y2.1726
X2.0085Y2.1331
X2.0098Y1.9173
X2.0098Y1.8386
X2.0098Y1.8189
X2.0276Y2.1319
X2.0276Y2.1122
X2.0276Y2.0925
X2.0276Y1.8799
X2.0295Y2.0157
X2.0295Y1.9961
X2.0295Y1.9764
X2.0295Y1.9567
X2.0374Y1.624
X2.0492Y2.0748
X2.0492Y2.0157
X2.0492Y1.9961
X2.0492Y1.9764
X2.0492Y1.9567
X2.0492Y1.937
X2.0492Y1.8386
X2.0492Y1.8189
X2.0512Y1.8799
X2.0689Y2.0748
X2.0689Y2.0157
X2.0689Y1.9961
X2.0689Y1.9764
X2.0689Y1.9567
X2.0689Y1.937
X2.0866Y2.1122
X2.0866Y1.8189
X2.0886Y2.0748
X2.0886Y2.0157
X2.0886Y1.9961
X2.0886Y1.9764
X2.0886Y1.9567
X2.0886Y1.937
X2.0886Y1.8386
X2.0907Y1.8793
X2.1063Y2.1122
X2.1083Y2.0157
X2.1083Y1.9961
X2.1083Y1.9764
X2.1083Y1.9567
X2.1083Y1.937
X2.126Y2.1122
X2.126Y2.0925
X2.1299Y2.0571
X2.1299Y1.8957
X2.1398Y1.752
X2.1417Y1.7205
X2.1457Y2.1122
X2.1469Y1.84
X2.1476Y1.9173
X2.1476Y1.9016
X2.149Y1.9953
X2.1496Y2.0157
X2.1496Y1.8563
X2.1516Y1.6555
X2.1654Y2.0157
X2.166Y1.9952
X2.1668Y1.937
X2.1693Y1.8563
X2.185Y2.1319
X2.185Y2.1122
X2.185Y2.0925
X2.185Y2.0531
X2.185Y2.0335
X2.185Y2.0138
X2.185Y1.9744
X2.185Y1.9547
X2.185Y1.9154
X2.185Y1.626
X2.189Y1.9941
X2.189Y1.935
X2.189Y1.8563
X2.1929Y2.1732
X2.2047Y2.1122
X2.2047Y2.0768
X2.2047Y2.0335
X2.2047Y2.0138
X2.2047Y1.9744
X2.2047Y1.9547
X2.2047Y1.9154
X2.2047Y1.8602
X2.2061Y2.1338
X2.2244Y2.0335
X2.2244Y1.9547
X2.2244Y1.876
X2.2244Y1.8563
X2.2343Y1.626
X2.25Y1.8936
X2.2513Y1.6555
X2.2697Y1.6398
X2.2756Y1.4902
X2.2776Y1.687
X2.2894Y1.6358
X2.3465Y1.624
X2.4528Y1.624
T3
X2.124Y1.565
X2.2913Y1.565
X2.3819Y1.378
X2.4055Y2.2854
X2.4055Y2.2461
X2.4055Y2.2067
X2.4055Y2.1673
X2.4055Y2.0846
X2.4055Y2.0453
X2.4055Y2.0059
X2.4055Y1.9705
X2.4055Y1.9311
X2.4055Y1.8917
X2.4055Y1.813
X2.4055Y1.7736
X2.4055Y1.7343
X2.4055Y1.6949
X2.4055Y1.6555
X2.4075Y1.8524
X2.4094Y2.128
X2.4508Y1.378
X2.504Y2.2854
X2.504Y1.8917
X2.5079Y2.4035
X2.5079Y2.3642
X2.5079Y2.3248
X2.5079Y2.0098
X2.5079Y1.9705
X2.5079Y1.9311
X2.508Y2.2461
X2.508Y2.2067
X2.508Y2.1673
X2.508Y2.128
X2.508Y2.0886
X2.508Y2.0492
X2.508Y1.8524
X2.508Y1.813
X2.508Y1.7736
X2.508Y1.7343
X2.508Y1.6949
X2.508Y1.6555
X2.5197Y1.3799
X2.5551Y1.6673
X2.5886Y1.378
X2.6476Y1.124
X2.7638Y2.2342
X2.7953Y2.2343
X2.8268Y2.2343
X2.8583Y2.2343
X2.8898Y2.2342
X2.9213Y2.2343
X2.9528Y2.2343
X2.9843Y2.2343
X3.0157Y2.2342
X3.0472Y2.2343
X3.1417Y2.2342
X3.1447Y0.8858
X3.1732Y2.2343
X3.2047Y2.2343
X3.2362Y2.2343
X3.2677Y2.2342
X3.2992Y2.2343
X3.3307Y2.2343
X3.3622Y2.2343
X3.3937Y2.2342
X3.4252Y2.2343
X3.5453Y1.124
T4
X2.2441Y1.5669
X2.3445Y1.6476
T5
X0.124Y2.1467
X0.124Y1.8091
X0.124Y1.2028
X0.1555Y2.75
X0.2352Y2.187
X0.2352Y1.2461
X0.2362Y1.7736
X0.2372Y2.75
X0.6398Y2.7264
X0.6496Y1.2697
X0.7382Y2.2539
X0.7382Y1.7028
X1.5846Y1.3878
X1.5925Y2.5689
X1.7402Y0.9862
X1.7421Y0.935
X1.7441Y0.8839
X1.8327Y0.7657
X1.8484Y2.4547
X1.8484Y1.2579
X1.8504Y3.0217
X1.8524Y2.8819
X1.878Y1.185
X1.878Y1.1535
X1.8839Y2.3524
X1.8917Y2.9232
X1.8996Y1.2421
X1.9035Y2.7067
X1.9045Y0.689
X1.9045Y0.6535
X1.9193Y2.4547
X1.9291Y3.0315
X1.9311Y1.7224
X1.9311Y1.6634
X1.9311Y1.624
X1.935Y1.5059
X1.939Y1.0846
X1.9488Y2.5413
X1.9508Y2.2854
X1.9547Y2.3524
X1.9547Y2.2224
X1.9567Y2.8878
X1.9705Y0.5807
X1.9783Y0.7224
X1.998Y2.8839
X2.0039Y1.6929
X2.0039Y0.9449
X2.0039Y0.874
X2.061Y1.5059
X2.0728Y0.7579
X2.0768Y1.0138
X2.0787Y1.185
X2.0787Y1.1496
X2.0984Y1.7677
X2.1083Y1.3681
X2.122Y0.5787
X2.1299Y2.5807
X2.1398Y1.5059
X2.1614Y0.5787
X2.1949Y0.7185
X2.1978Y1.0531
X2.1988Y0.9154
X2.1988Y0.8169
X2.2146Y0.5177
X2.2382Y2.1929
X2.2421Y0.6634
X2.2461Y1.2264
X2.248Y3.3602
X2.252Y2.8346
X2.253Y3.187
X2.2559Y2.6181
X2.2618Y0.7854
X2.2736Y2.4213
X2.2736Y2.2854
X2.2747Y1.8535
X2.2815Y1.7992
X2.2815Y0.5177
X2.313Y1.7638
X2.313Y1.2343
X2.313Y0.4193
X2.3209Y0.5453
X2.3445Y1.3799
X2.3484Y1.3445
X2.3622Y1.1083
X2.3622Y0.6614
X2.4016Y2.4705
X2.4154Y1.502
X2.4587Y0.439
X2.4606Y0.6398
X2.4862Y1.498
X2.4941Y0.9941
X2.5Y0.4429
X2.5059Y1.0413
X2.5059Y0.7736
X2.5256Y0.9744
X2.5262Y0.8557
X2.5295Y1.0177
X2.5394Y2.4705
X2.5413Y1.0728
X2.5689Y1.5413
X2.5768Y0.5728
X2.5768Y0.4272
X2.5886Y1.5059
X2.5965Y0.7657
X2.6122Y1.5492
X2.6476Y1.2618
X2.6476Y0.7087
X2.6772Y0.3691
X2.6772Y0.0935
X2.6821Y0.6752
X2.7185Y1.2618
X2.7421Y1.6594
X2.7421Y1.6083
X2.7421Y1.561
X2.7441Y1.5098
X2.7697Y1.0906
X2.7697Y0.7579
X2.8051Y0.5709
X2.8445Y1.0886
X2.8465Y0.6693
X2.8839Y0.5709
X2.8917Y1.7382
X2.8937Y2.7264
X2.9705Y1.0256
X2.9744Y0.8287
X3.0251Y0.9902
X3.0256Y1.6083
X3.0256Y1.5571
X3.0256Y1.5098
X3.0295Y1.7382
X3.0295Y1.6594
X3.0448Y1.0098
X3.0522Y1.0384
X3.065Y2.3366
X3.0689Y1.7815
X3.0709Y0.4429
X3.0709Y0.2972
X3.0728Y1.0581
X3.0925Y1.0384
X3.1161Y1.7815
X3.124Y2.3366
X3.1378Y0.2972
X3.1398Y0.4724
X3.1565Y1.0354
X3.1565Y0.7913
X3.1909Y1.0531
X3.1988Y1.5256
X3.1988Y1.4272
X3.1988Y1.25
X3.1988Y1.1516
X3.2077Y0.9843
X3.2106Y1.3287
X3.2136Y1.0728
X3.2333Y1.3484
X3.2343Y1.093
X3.2343Y1.033
X3.2451Y0.811
X3.2539Y1.3686
X3.2539Y1.3086
X3.2736Y1.1009
X3.2736Y1.029
X3.2933Y1.3765
X3.2933Y1.3046
X3.313Y0.811
X3.3179Y0.8622
X3.3287Y0.4035
X3.3287Y0.376
X3.3465Y0.2264
X3.3563Y1.002
X3.3563Y0.9665
X3.3661Y2.9724
X3.376Y1.7618
X3.4272Y1.4508
X3.4311Y1.1319
X3.4941Y0.2264
X3.5217Y0.4035
X3.5217Y0.376
X3.5453Y1.4429
X3.5827Y2.8543
X3.6083Y1.4232
X3.6083Y1.124
X3.6319Y1.6339
X3.6447Y0.6102
X3.6486Y0.5276
X3.6496Y0.7008
X3.6752Y1.0531
X3.6791Y1.3681
X3.6791Y0.9862
X3.7008Y1.2756
X3.7421Y1.5256
T7
X1.0925Y2.2539
X1.0925Y2.0965
X1.0925Y1.939
X1.0925Y1.7815
X1.1909Y2.1752
X1.1909Y2.0177
X1.1909Y1.8602
X1.1909Y1.7028
X1.5268Y3.3421
X1.5323Y0.3874
X1.5768Y3.4421
X1.5823Y0.2874
X1.6268Y3.3421
X1.6323Y0.3874
X1.6768Y3.4421
X1.6823Y0.2874
X1.7268Y3.3421
X1.7323Y0.3874
X1.7768Y3.4421
X1.7823Y0.2874
X1.8268Y3.3421
X1.8323Y0.3874
X1.8768Y3.4421
X1.8823Y0.2874
X1.9268Y3.3421
X1.9323Y0.3874
X2.0866Y3.4366
X2.0866Y3.3366
X2.0866Y3.2366
X2.0866Y0.4724
X2.0866Y0.3724
X2.0866Y0.2724
X2.628Y2.7362
X2.8465Y0.4921
X2.8642Y2.5295
X3.0354Y3.1063
X3.2776Y1.6339
X3.7913Y3.1457
X3.7953Y2.8898
T8
X0.7874Y2.8248
X0.7874Y2.7264
X0.7874Y2.628
X0.7874Y1.3681
X0.7874Y1.2697
X0.7874Y1.1713
X1.3583Y2.8248
X1.3583Y2.628
X1.3583Y1.3681
X1.3583Y1.1713
X2.8445Y1.1976
X2.9445Y1.1976
X3.6614Y2.5146
X3.6614Y2.4146
X3.6614Y2.3146
X3.6614Y2.2146
X3.6614Y2.1146
X3.6614Y2.0146
X3.6614Y1.9146
X3.6614Y1.8146
T9
X0.5695Y3.2203
X0.5709Y0.7262
X0.6238Y3.3321
X0.6252Y0.6144
X0.6782Y3.2203
X0.6795Y0.7262
X0.7325Y3.3321
X0.7339Y0.6144
X0.7868Y3.2203
X0.7882Y0.7262
X0.8411Y3.3321
X0.8425Y0.6144
X0.8955Y3.2203
X0.8969Y0.7262
X0.9498Y3.3321
X0.9512Y0.6144
X1.0041Y3.2203
X1.0055Y0.7262
X2.8258Y3.3465
X2.8708Y3.4244
X2.8708Y3.2685
X2.9159Y3.3465
X2.961Y3.4244
X2.961Y3.2685
X3.0061Y3.3465
X3.0512Y3.4244
X3.0512Y3.2685
X3.0962Y3.3465
X3.1413Y3.4244
X3.1413Y3.2685
X3.1864Y3.3465
X3.2315Y3.4244
X3.2315Y3.2685
T10
X0.4035Y2.8543
X0.4035Y2.5984
X0.4035Y2.3425
X0.4035Y2.0866
X0.4035Y1.8701
X0.4035Y1.6142
X0.4035Y1.3976
X0.4035Y1.1417
X2.2244Y0.1644
X2.4803Y0.1644
X2.8051Y0.1644
X3.061Y0.1644
T11
X1.0827Y2.9469
X1.0827Y2.5059
X1.0827Y1.4902
X1.0827Y1.0492
T12
X0.1378Y3.7992
X0.1378Y0.1378
X3.7992Y3.7992
X3.7992Y0.1378
T13
X0.2947Y3.2762
X0.2961Y0.6703
X1.2789Y3.2762
X1.2803Y0.6703
T14
X2.5591Y3.3465
X3.5433Y3.3465
T6
G00X3.2551Y0.3024
M15
G01X3.2551Y0.2591
M16
G05
G00X3.2551Y0.128
M15
G01X3.2551Y0.1043
M16
G05
G00X3.5953Y0.3024
M15
G01X3.5953Y0.2591
M16
G05
G00X3.5953Y0.128
M15
G01X3.5953Y0.1043
M16
G05
M30
