%TF.GenerationSoftware,KiCad,Pcbnew,9.0.7-1.fc43*%
%TF.CreationDate,2026-03-10T22:51:56+01:00*%
%TF.ProjectId,fpgaler,66706761-6c65-4722-9e6b-696361645f70,rev?*%
%TF.SameCoordinates,Original*%
%TF.FileFunction,Soldermask,Bot*%
%TF.FilePolarity,Negative*%
%FSLAX46Y46*%
G04 Gerber Fmt 4.6, Leading zero omitted, Abs format (unit mm)*
G04 Created by KiCad (PCBNEW 9.0.7-1.fc43) date 2026-03-10 22:51:56*
%MOMM*%
%LPD*%
G01*
G04 APERTURE LIST*
%ADD10C,1.500000*%
%ADD11C,0.650000*%
%ADD12O,1.000000X2.100000*%
%ADD13O,1.000000X1.600000*%
%ADD14R,1.700000X1.700000*%
%ADD15C,1.700000*%
%ADD16C,5.000000*%
%ADD17R,2.000000X2.000000*%
%ADD18C,2.000000*%
%ADD19C,3.200000*%
%ADD20C,1.800000*%
%ADD21C,4.500000*%
G04 APERTURE END LIST*
D10*
%TO.C,TP3*%
X47810000Y7300000D03*
%TD*%
D11*
%TO.C,J1*%
X84110000Y6600000D03*
X89890000Y6600000D03*
D12*
X82680000Y7130000D03*
D13*
X82680000Y2950000D03*
D12*
X91320000Y7130001D03*
D13*
X91320000Y2950000D03*
%TD*%
D14*
%TO.C,J6*%
X25505034Y81794967D03*
D15*
X22745034Y81794967D03*
X19985034Y81794967D03*
X17225034Y81794967D03*
X14465034Y81794967D03*
X24125034Y84634967D03*
X21365034Y84634967D03*
X18605034Y84634967D03*
X15845034Y84634967D03*
D16*
X7485034Y83214967D03*
X32485034Y83214967D03*
%TD*%
D10*
%TO.C,TP24*%
X53000000Y84750000D03*
%TD*%
D14*
%TO.C,J4*%
X72250000Y30420000D03*
D15*
X74790000Y30420000D03*
%TD*%
D14*
%TO.C,J3*%
X93000000Y46090000D03*
D15*
X93000000Y48630000D03*
X93000000Y51170000D03*
X93000000Y53710000D03*
X93000000Y56250000D03*
X93000000Y58790000D03*
X93000000Y61330000D03*
X93000000Y63870000D03*
%TD*%
D10*
%TO.C,TP7*%
X42730000Y7300000D03*
%TD*%
%TO.C,TP10*%
X38920000Y9840000D03*
%TD*%
%TO.C,TP13*%
X41320000Y84890000D03*
%TD*%
%TO.C,TP25*%
X53000000Y9460000D03*
%TD*%
%TO.C,TP30*%
X27750000Y49250000D03*
%TD*%
%TO.C,TP23*%
X53000000Y12000000D03*
%TD*%
%TO.C,TP17*%
X46400000Y84890000D03*
%TD*%
%TO.C,TP20*%
X53000000Y6920000D03*
%TD*%
D14*
%TO.C,J7*%
X14500000Y18445331D03*
D15*
X17260000Y18445331D03*
X20020000Y18445331D03*
X22780000Y18445331D03*
X25540000Y18445331D03*
X15880000Y15605331D03*
X18640000Y15605331D03*
X21400000Y15605331D03*
X24160000Y15605331D03*
D16*
X32520000Y17025331D03*
X7520000Y17025331D03*
%TD*%
D10*
%TO.C,TP32*%
X27750000Y53250000D03*
%TD*%
%TO.C,TP15*%
X43860000Y84890000D03*
%TD*%
%TO.C,TP12*%
X40050000Y87430000D03*
%TD*%
%TO.C,TP34*%
X27750000Y57250000D03*
%TD*%
%TO.C,TP39*%
X66750000Y69500000D03*
%TD*%
%TO.C,TP5*%
X45270000Y7300000D03*
%TD*%
%TO.C,TP22*%
X30250000Y43250000D03*
%TD*%
%TO.C,TP26*%
X72300000Y12500000D03*
%TD*%
%TO.C,TP29*%
X30250000Y47250000D03*
%TD*%
%TO.C,TP9*%
X40190000Y7300000D03*
%TD*%
%TO.C,TP31*%
X30250000Y51250000D03*
%TD*%
D17*
%TO.C,SW2*%
X20000000Y71750000D03*
D18*
X20000000Y66750000D03*
X20000000Y69250000D03*
D19*
X27500000Y74850000D03*
X27500000Y63650000D03*
D18*
X34500000Y66750000D03*
X34500000Y71750000D03*
%TD*%
D10*
%TO.C,TP28*%
X27750000Y45250000D03*
%TD*%
%TO.C,TP1*%
X53000000Y82210000D03*
%TD*%
%TO.C,TP21*%
X48940000Y84890000D03*
%TD*%
%TO.C,TP18*%
X47670000Y87430000D03*
%TD*%
%TO.C,TP35*%
X96400000Y73400000D03*
%TD*%
%TO.C,TP11*%
X38780000Y84890000D03*
%TD*%
%TO.C,TP33*%
X30250000Y55250000D03*
%TD*%
%TO.C,TP4*%
X46540000Y9840000D03*
%TD*%
%TO.C,TP27*%
X72750000Y64250000D03*
%TD*%
%TO.C,TP8*%
X41460000Y9840000D03*
%TD*%
%TO.C,TP19*%
X53000000Y87290000D03*
%TD*%
%TO.C,TP6*%
X44000000Y9840000D03*
%TD*%
%TO.C,TP16*%
X45130000Y87430000D03*
%TD*%
%TO.C,TP38*%
X83250000Y41500000D03*
%TD*%
%TO.C,TP37*%
X96300000Y79900000D03*
%TD*%
%TO.C,TP14*%
X42590000Y87430000D03*
%TD*%
%TO.C,TP2*%
X49080000Y9840000D03*
%TD*%
D20*
%TO.C,J5*%
X72919500Y83020000D03*
X75209500Y83020000D03*
X77499500Y83020000D03*
X79789500Y83020000D03*
X82079500Y83020000D03*
X71774500Y85000000D03*
X74064500Y85000000D03*
X76354500Y85000000D03*
X78644500Y85000000D03*
X80934500Y85000000D03*
X72919500Y86980000D03*
X75209500Y86980000D03*
X77499500Y86980000D03*
X79789500Y86980000D03*
X82079500Y86980000D03*
D21*
X90000000Y85000000D03*
X65000000Y85000000D03*
%TD*%
D10*
%TO.C,TP36*%
X77100000Y78900000D03*
%TD*%
D17*
%TO.C,SW1*%
X20000000Y34750000D03*
D18*
X20000000Y29750000D03*
X20000000Y32250000D03*
D19*
X27500000Y37850000D03*
X27500000Y26650000D03*
D18*
X34500000Y29750000D03*
X34500000Y34750000D03*
%TD*%
M02*
