%TF.GenerationSoftware,KiCad,Pcbnew,9.0.7-1.fc43*%
%TF.CreationDate,2026-03-10T22:51:56+01:00*%
%TF.ProjectId,fpgaler,66706761-6c65-4722-9e6b-696361645f70,rev?*%
%TF.SameCoordinates,Original*%
%TF.FileFunction,Soldermask,Top*%
%TF.FilePolarity,Negative*%
%FSLAX46Y46*%
G04 Gerber Fmt 4.6, Leading zero omitted, Abs format (unit mm)*
G04 Created by KiCad (PCBNEW 9.0.7-1.fc43) date 2026-03-10 22:51:56*
%MOMM*%
%LPD*%
G01*
G04 APERTURE LIST*
G04 Aperture macros list*
%AMRoundRect*
0 Rectangle with rounded corners*
0 $1 Rounding radius*
0 $2 $3 $4 $5 $6 $7 $8 $9 X,Y pos of 4 corners*
0 Add a 4 corners polygon primitive as box body*
4,1,4,$2,$3,$4,$5,$6,$7,$8,$9,$2,$3,0*
0 Add four circle primitives for the rounded corners*
1,1,$1+$1,$2,$3*
1,1,$1+$1,$4,$5*
1,1,$1+$1,$6,$7*
1,1,$1+$1,$8,$9*
0 Add four rect primitives between the rounded corners*
20,1,$1+$1,$2,$3,$4,$5,0*
20,1,$1+$1,$4,$5,$6,$7,0*
20,1,$1+$1,$6,$7,$8,$9,0*
20,1,$1+$1,$8,$9,$2,$3,0*%
%AMFreePoly0*
4,1,6,0.180000,0.075000,0.000000,-0.105000,-0.180000,-0.105000,-0.180000,0.105000,0.180000,0.105000,0.180000,0.075000,0.180000,0.075000,$1*%
%AMFreePoly1*
4,1,6,0.180000,-0.075000,0.180000,-0.105000,-0.180000,-0.105000,-0.180000,0.105000,0.000000,0.105000,0.180000,-0.075000,0.180000,-0.075000,$1*%
%AMFreePoly2*
4,1,6,0.180000,-0.105000,0.000000,-0.105000,-0.180000,0.075000,-0.180000,0.105000,0.180000,0.105000,0.180000,-0.105000,0.180000,-0.105000,$1*%
%AMFreePoly3*
4,1,6,0.180000,-0.105000,-0.180000,-0.105000,-0.180000,-0.075000,0.000000,0.105000,0.180000,0.105000,0.180000,-0.105000,0.180000,-0.105000,$1*%
G04 Aperture macros list end*
%ADD10RoundRect,0.250000X0.750000X-0.275000X0.750000X0.275000X-0.750000X0.275000X-0.750000X-0.275000X0*%
%ADD11RoundRect,0.250000X0.275000X0.750000X-0.275000X0.750000X-0.275000X-0.750000X0.275000X-0.750000X0*%
%ADD12RoundRect,0.250000X-0.750000X0.275000X-0.750000X-0.275000X0.750000X-0.275000X0.750000X0.275000X0*%
%ADD13RoundRect,0.250000X-0.275000X-0.750000X0.275000X-0.750000X0.275000X0.750000X-0.275000X0.750000X0*%
%ADD14RoundRect,0.160000X-0.197500X-0.160000X0.197500X-0.160000X0.197500X0.160000X-0.197500X0.160000X0*%
%ADD15RoundRect,0.225000X-0.250000X0.225000X-0.250000X-0.225000X0.250000X-0.225000X0.250000X0.225000X0*%
%ADD16RoundRect,0.218750X0.218750X0.256250X-0.218750X0.256250X-0.218750X-0.256250X0.218750X-0.256250X0*%
%ADD17RoundRect,0.200000X0.200000X0.275000X-0.200000X0.275000X-0.200000X-0.275000X0.200000X-0.275000X0*%
%ADD18RoundRect,0.160000X0.197500X0.160000X-0.197500X0.160000X-0.197500X-0.160000X0.197500X-0.160000X0*%
%ADD19RoundRect,0.200000X-0.200000X-0.275000X0.200000X-0.275000X0.200000X0.275000X-0.200000X0.275000X0*%
%ADD20RoundRect,0.237500X-0.287500X-0.237500X0.287500X-0.237500X0.287500X0.237500X-0.287500X0.237500X0*%
%ADD21RoundRect,0.200000X-0.275000X0.200000X-0.275000X-0.200000X0.275000X-0.200000X0.275000X0.200000X0*%
%ADD22C,1.500000*%
%ADD23R,0.600000X1.450000*%
%ADD24R,0.300000X1.450000*%
%ADD25O,1.000000X2.100000*%
%ADD26O,1.000000X1.600000*%
%ADD27RoundRect,0.237500X0.237500X-0.287500X0.237500X0.287500X-0.237500X0.287500X-0.237500X-0.287500X0*%
%ADD28RoundRect,0.160000X0.160000X-0.197500X0.160000X0.197500X-0.160000X0.197500X-0.160000X-0.197500X0*%
%ADD29RoundRect,0.200000X0.275000X-0.200000X0.275000X0.200000X-0.275000X0.200000X-0.275000X-0.200000X0*%
%ADD30RoundRect,0.225000X0.250000X-0.225000X0.250000X0.225000X-0.250000X0.225000X-0.250000X-0.225000X0*%
%ADD31R,1.700000X1.700000*%
%ADD32C,1.700000*%
%ADD33C,5.000000*%
%ADD34RoundRect,0.250000X0.475000X-0.250000X0.475000X0.250000X-0.475000X0.250000X-0.475000X-0.250000X0*%
%ADD35RoundRect,0.237500X0.287500X0.237500X-0.287500X0.237500X-0.287500X-0.237500X0.287500X-0.237500X0*%
%ADD36RoundRect,0.075000X0.700000X0.075000X-0.700000X0.075000X-0.700000X-0.075000X0.700000X-0.075000X0*%
%ADD37RoundRect,0.075000X0.075000X0.700000X-0.075000X0.700000X-0.075000X-0.700000X0.075000X-0.700000X0*%
%ADD38RoundRect,0.160000X-0.160000X0.197500X-0.160000X-0.197500X0.160000X-0.197500X0.160000X0.197500X0*%
%ADD39FreePoly0,270.000000*%
%ADD40FreePoly1,270.000000*%
%ADD41FreePoly2,270.000000*%
%ADD42FreePoly3,270.000000*%
%ADD43RoundRect,0.120000X-0.169706X0.000000X0.000000X-0.169706X0.169706X0.000000X0.000000X0.169706X0*%
%ADD44RoundRect,0.218750X-0.218750X-0.256250X0.218750X-0.256250X0.218750X0.256250X-0.218750X0.256250X0*%
%ADD45RoundRect,0.225000X-0.225000X-0.250000X0.225000X-0.250000X0.225000X0.250000X-0.225000X0.250000X0*%
%ADD46RoundRect,0.250000X-0.475000X0.250000X-0.475000X-0.250000X0.475000X-0.250000X0.475000X0.250000X0*%
%ADD47RoundRect,0.087500X0.250000X0.087500X-0.250000X0.087500X-0.250000X-0.087500X0.250000X-0.087500X0*%
%ADD48RoundRect,0.218750X-0.256250X0.218750X-0.256250X-0.218750X0.256250X-0.218750X0.256250X0.218750X0*%
%ADD49RoundRect,0.225000X0.225000X0.250000X-0.225000X0.250000X-0.225000X-0.250000X0.225000X-0.250000X0*%
%ADD50RoundRect,0.150000X0.150000X-0.512500X0.150000X0.512500X-0.150000X0.512500X-0.150000X-0.512500X0*%
%ADD51RoundRect,0.218750X0.117915X0.315613X-0.293200X0.165979X-0.117915X-0.315613X0.293200X-0.165979X0*%
%ADD52RoundRect,0.218750X0.218750X0.381250X-0.218750X0.381250X-0.218750X-0.381250X0.218750X-0.381250X0*%
%ADD53RoundRect,0.218750X0.240367X-0.236092X0.270885X0.200342X-0.240367X0.236092X-0.270885X-0.200342X0*%
%ADD54RoundRect,0.250000X-0.325000X-0.650000X0.325000X-0.650000X0.325000X0.650000X-0.325000X0.650000X0*%
%ADD55C,0.230000*%
%ADD56RoundRect,0.150000X0.150000X-0.825000X0.150000X0.825000X-0.150000X0.825000X-0.150000X-0.825000X0*%
%ADD57O,0.448000X1.551000*%
%ADD58RoundRect,0.125000X-0.262500X-0.125000X0.262500X-0.125000X0.262500X0.125000X-0.262500X0.125000X0*%
%ADD59R,3.400000X4.000000*%
%ADD60R,1.200000X1.400000*%
%ADD61R,2.000000X2.000000*%
%ADD62C,2.000000*%
%ADD63C,3.200000*%
%ADD64RoundRect,0.250000X0.325000X0.650000X-0.325000X0.650000X-0.325000X-0.650000X0.325000X-0.650000X0*%
%ADD65RoundRect,0.150000X0.150000X-0.587500X0.150000X0.587500X-0.150000X0.587500X-0.150000X-0.587500X0*%
%ADD66RoundRect,0.250000X0.250000X0.475000X-0.250000X0.475000X-0.250000X-0.475000X0.250000X-0.475000X0*%
%ADD67RoundRect,0.150000X-0.150000X0.587500X-0.150000X-0.587500X0.150000X-0.587500X0.150000X0.587500X0*%
%ADD68RoundRect,0.150000X-0.150000X0.512500X-0.150000X-0.512500X0.150000X-0.512500X0.150000X0.512500X0*%
%ADD69RoundRect,0.250000X-0.250000X-0.475000X0.250000X-0.475000X0.250000X0.475000X-0.250000X0.475000X0*%
%ADD70C,1.800000*%
%ADD71C,4.500000*%
%ADD72RoundRect,0.218750X0.209674X0.263728X-0.227560X0.248460X-0.209674X-0.263728X0.227560X-0.248460X0*%
%ADD73RoundRect,0.250000X-0.400000X-0.300000X0.400000X-0.300000X0.400000X0.300000X-0.400000X0.300000X0*%
G04 APERTURE END LIST*
D10*
%TO.C,SW8*%
X10250000Y68025000D03*
X10250000Y72475000D03*
%TD*%
D11*
%TO.C,SW7*%
X76475000Y4250000D03*
X72025000Y4250000D03*
%TD*%
D12*
%TO.C,SW6*%
X10250000Y57475000D03*
X10250000Y53025000D03*
%TD*%
D13*
%TO.C,SW5*%
X58525000Y4175000D03*
X62975000Y4175000D03*
%TD*%
D10*
%TO.C,SW4*%
X10250000Y43025000D03*
X10250000Y47475000D03*
%TD*%
D12*
%TO.C,SW3*%
X10225000Y33425000D03*
X10225000Y28975000D03*
%TD*%
D14*
%TO.C,R134*%
X65502500Y55550000D03*
X66697500Y55550000D03*
%TD*%
D15*
%TO.C,C52*%
X64000000Y40525000D03*
X64000000Y38975000D03*
%TD*%
D16*
%TO.C,D14*%
X88787500Y60500000D03*
X87212500Y60500000D03*
%TD*%
D17*
%TO.C,R21*%
X24612500Y55250000D03*
X22962500Y55250000D03*
%TD*%
D15*
%TO.C,C48*%
X53500000Y43775000D03*
X53500000Y42225000D03*
%TD*%
D18*
%TO.C,R81*%
X38847500Y60750000D03*
X37652500Y60750000D03*
%TD*%
D19*
%TO.C,R27*%
X90925000Y36500000D03*
X92575000Y36500000D03*
%TD*%
D20*
%TO.C,FB2*%
X72875000Y21000000D03*
X74625000Y21000000D03*
%TD*%
D21*
%TO.C,R45*%
X59750000Y15575000D03*
X59750000Y13925000D03*
%TD*%
D15*
%TO.C,C24*%
X73250000Y17000000D03*
X73250000Y15450000D03*
%TD*%
D22*
%TO.C,TP3*%
X47810000Y7300000D03*
%TD*%
D23*
%TO.C,J1*%
X83750000Y8045000D03*
X84550000Y8045000D03*
D24*
X85750000Y8045000D03*
X86750000Y8045000D03*
X87250000Y8045000D03*
X88250000Y8045000D03*
D23*
X89450000Y8045000D03*
X90250000Y8045000D03*
X90250000Y8045000D03*
X89450000Y8045000D03*
D24*
X88749999Y8045000D03*
X87750000Y8045000D03*
X86250000Y8045000D03*
X85250000Y8045000D03*
D23*
X84550000Y8045000D03*
X83750000Y8045000D03*
D25*
X82680000Y7130000D03*
D26*
X82680000Y2950000D03*
D25*
X91320000Y7130001D03*
D26*
X91320000Y2950000D03*
%TD*%
D14*
%TO.C,R128*%
X65502500Y43350000D03*
X66697500Y43350000D03*
%TD*%
D27*
%TO.C,FB7*%
X91750000Y11625000D03*
X91750000Y13375000D03*
%TD*%
D17*
%TO.C,R8*%
X39325000Y66000000D03*
X37675000Y66000000D03*
%TD*%
D18*
%TO.C,R89*%
X38847500Y62000000D03*
X37652500Y62000000D03*
%TD*%
D17*
%TO.C,R16*%
X24612500Y49250000D03*
X22962500Y49250000D03*
%TD*%
D14*
%TO.C,R164*%
X65502500Y61650000D03*
X66697500Y61650000D03*
%TD*%
D28*
%TO.C,R54*%
X62250000Y33152500D03*
X62250000Y34347500D03*
%TD*%
%TO.C,R52*%
X65750000Y33152500D03*
X65750000Y34347500D03*
%TD*%
D29*
%TO.C,R3*%
X16500000Y33175000D03*
X16500000Y34825000D03*
%TD*%
D30*
%TO.C,C43*%
X50500000Y59725000D03*
X50500000Y61275000D03*
%TD*%
D31*
%TO.C,J6*%
X25505034Y81794967D03*
D32*
X22745034Y81794967D03*
X19985034Y81794967D03*
X17225034Y81794967D03*
X14465034Y81794967D03*
X24125034Y84634967D03*
X21365034Y84634967D03*
X18605034Y84634967D03*
X15845034Y84634967D03*
D33*
X7485034Y83214967D03*
X32485034Y83214967D03*
%TD*%
D17*
%TO.C,R7*%
X39325000Y35250000D03*
X37675000Y35250000D03*
%TD*%
D34*
%TO.C,C37*%
X69250000Y25800000D03*
X69250000Y27700000D03*
%TD*%
D28*
%TO.C,R166*%
X40250000Y81542500D03*
X40250000Y82737500D03*
%TD*%
D35*
%TO.C,FB6*%
X85125000Y34000000D03*
X83375000Y34000000D03*
%TD*%
D14*
%TO.C,R156*%
X61805000Y57050000D03*
X63000000Y57050000D03*
%TD*%
D36*
%TO.C,U6*%
X65925000Y20250000D03*
X65925000Y20750000D03*
X65925000Y21250000D03*
X65925000Y21750000D03*
X65925000Y22250000D03*
X65925000Y22750000D03*
X65925000Y23250000D03*
X65925000Y23750000D03*
X65925000Y24250000D03*
X65925000Y24750000D03*
X65925000Y25250000D03*
X65925000Y25750000D03*
X65925000Y26250000D03*
X65925000Y26750000D03*
X65925000Y27250000D03*
X65925000Y27750000D03*
D37*
X64000000Y29675000D03*
X63500000Y29675000D03*
X63000000Y29675000D03*
X62500000Y29675000D03*
X62000000Y29675000D03*
X61500000Y29675000D03*
X61000000Y29675000D03*
X60500000Y29675000D03*
X60000000Y29675000D03*
X59500000Y29675000D03*
X59000000Y29675000D03*
X58500000Y29675000D03*
X58000000Y29675000D03*
X57500000Y29675000D03*
X57000000Y29675000D03*
X56500000Y29675000D03*
D36*
X54575000Y27750000D03*
X54575000Y27250000D03*
X54575000Y26750000D03*
X54575000Y26250000D03*
X54575000Y25750000D03*
X54575000Y25250000D03*
X54575000Y24750000D03*
X54575000Y24250000D03*
X54575000Y23750000D03*
X54575000Y23250000D03*
X54575000Y22750000D03*
X54575000Y22250000D03*
X54575000Y21750000D03*
X54575000Y21250000D03*
X54575000Y20750000D03*
X54575000Y20250000D03*
D37*
X56500000Y18325000D03*
X57000000Y18325000D03*
X57500000Y18325000D03*
X58000000Y18325000D03*
X58500000Y18325000D03*
X59000000Y18325000D03*
X59500000Y18325000D03*
X60000000Y18325000D03*
X60500000Y18325000D03*
X61000000Y18325000D03*
X61500000Y18325000D03*
X62000000Y18325000D03*
X62500000Y18325000D03*
X63000000Y18325000D03*
X63500000Y18325000D03*
X64000000Y18325000D03*
%TD*%
D19*
%TO.C,R111*%
X58175000Y77450000D03*
X59825000Y77450000D03*
%TD*%
D38*
%TO.C,R125*%
X47590000Y13247500D03*
X47590000Y12052500D03*
%TD*%
D29*
%TO.C,R17*%
X66250000Y3175000D03*
X66250000Y4825000D03*
%TD*%
D14*
%TO.C,R165*%
X65502500Y60550000D03*
X66697500Y60550000D03*
%TD*%
D39*
%TO.C,U3*%
X80775000Y21860000D03*
D40*
X80125000Y21860000D03*
D41*
X80775000Y21000000D03*
D42*
X80125000Y21000000D03*
D43*
X80450000Y21430000D03*
%TD*%
D14*
%TO.C,R131*%
X65502500Y59550000D03*
X66697500Y59550000D03*
%TD*%
D18*
%TO.C,R90*%
X38847500Y63250000D03*
X37652500Y63250000D03*
%TD*%
D44*
%TO.C,D1*%
X19750000Y43250000D03*
X21325000Y43250000D03*
%TD*%
D22*
%TO.C,TP24*%
X53000000Y84750000D03*
%TD*%
D27*
%TO.C,FB1*%
X89725000Y11625000D03*
X89725000Y13375000D03*
%TD*%
D45*
%TO.C,C50*%
X61975000Y62750000D03*
X63525000Y62750000D03*
%TD*%
D31*
%TO.C,J4*%
X72250000Y30420000D03*
D32*
X74790000Y30420000D03*
%TD*%
D14*
%TO.C,R158*%
X61805000Y54050000D03*
X63000000Y54050000D03*
%TD*%
D35*
%TO.C,FB4*%
X84625000Y27000000D03*
X82875000Y27000000D03*
%TD*%
D21*
%TO.C,R64*%
X62250000Y37325000D03*
X62250000Y35675000D03*
%TD*%
D14*
%TO.C,R143*%
X61805000Y48050000D03*
X63000000Y48050000D03*
%TD*%
D21*
%TO.C,R48*%
X69000000Y31075000D03*
X69000000Y29425000D03*
%TD*%
D46*
%TO.C,C36*%
X69250000Y21200000D03*
X69250000Y19300000D03*
%TD*%
D18*
%TO.C,R9*%
X73347500Y24000000D03*
X72152500Y24000000D03*
%TD*%
D14*
%TO.C,R10*%
X72152500Y23000000D03*
X73347500Y23000000D03*
%TD*%
%TO.C,R153*%
X61805000Y45050000D03*
X63000000Y45050000D03*
%TD*%
D31*
%TO.C,J3*%
X93000000Y46090000D03*
D32*
X93000000Y48630000D03*
X93000000Y51170000D03*
X93000000Y53710000D03*
X93000000Y56250000D03*
X93000000Y58790000D03*
X93000000Y61330000D03*
X93000000Y63870000D03*
%TD*%
D21*
%TO.C,R93*%
X60500000Y40575000D03*
X60500000Y38925000D03*
%TD*%
D18*
%TO.C,R88*%
X38847500Y64500000D03*
X37652500Y64500000D03*
%TD*%
D22*
%TO.C,TP7*%
X42730000Y7300000D03*
%TD*%
D15*
%TO.C,C7*%
X68000000Y8275000D03*
X68000000Y6725000D03*
%TD*%
%TO.C,C22*%
X56250000Y15525000D03*
X56250000Y13975000D03*
%TD*%
D22*
%TO.C,TP10*%
X38920000Y9840000D03*
%TD*%
D15*
%TO.C,C42*%
X50000000Y43775000D03*
X50000000Y42225000D03*
%TD*%
D47*
%TO.C,U2*%
X89237500Y28250000D03*
X89237500Y28750000D03*
X89237500Y29250000D03*
X87812500Y29250000D03*
X87812500Y28750000D03*
X87812500Y28250000D03*
%TD*%
D48*
%TO.C,D11*%
X48250000Y37287500D03*
X48250000Y35712500D03*
%TD*%
D21*
%TO.C,R95*%
X48250000Y34075000D03*
X48250000Y32425000D03*
%TD*%
D49*
%TO.C,C32*%
X51750000Y27500000D03*
X50200000Y27500000D03*
%TD*%
D21*
%TO.C,R102*%
X53500000Y37325000D03*
X53500000Y35675000D03*
%TD*%
D22*
%TO.C,TP13*%
X41320000Y84890000D03*
%TD*%
D15*
%TO.C,C45*%
X48250000Y43775000D03*
X48250000Y42225000D03*
%TD*%
D50*
%TO.C,U5*%
X61550000Y12362500D03*
X62500000Y12362500D03*
X63450000Y12362500D03*
X63450000Y14637500D03*
X62500000Y14637500D03*
X61550000Y14637500D03*
%TD*%
D51*
%TO.C,D15*%
X72240008Y68769341D03*
X70759992Y68230659D03*
%TD*%
D14*
%TO.C,R130*%
X65502500Y58550000D03*
X66697500Y58550000D03*
%TD*%
D22*
%TO.C,TP25*%
X53000000Y9460000D03*
%TD*%
D19*
%TO.C,R32*%
X90925000Y26750000D03*
X92575000Y26750000D03*
%TD*%
%TO.C,R110*%
X58175000Y75450000D03*
X59825000Y75450000D03*
%TD*%
%TO.C,R108*%
X58175000Y71935033D03*
X59825000Y71935033D03*
%TD*%
D21*
%TO.C,R11*%
X6000000Y30575000D03*
X6000000Y28925000D03*
%TD*%
D22*
%TO.C,TP30*%
X27750000Y49250000D03*
%TD*%
D52*
%TO.C,L1*%
X89062500Y39000000D03*
X86937500Y39000000D03*
%TD*%
D53*
%TO.C,D10*%
X90945067Y73714418D03*
X91054933Y75285582D03*
%TD*%
D21*
%TO.C,R2*%
X16250000Y68325000D03*
X16250000Y66675000D03*
%TD*%
D22*
%TO.C,TP23*%
X53000000Y12000000D03*
%TD*%
D29*
%TO.C,R22*%
X68000000Y3175000D03*
X68000000Y4825000D03*
%TD*%
D28*
%TO.C,R76*%
X41500000Y81542500D03*
X41500000Y82737500D03*
%TD*%
D30*
%TO.C,C44*%
X50450000Y56475000D03*
X50450000Y58025000D03*
%TD*%
%TO.C,C28*%
X58750000Y32500000D03*
X58750000Y34050000D03*
%TD*%
D14*
%TO.C,R138*%
X65502500Y53550000D03*
X66697500Y53550000D03*
%TD*%
D44*
%TO.C,D8*%
X19750000Y57250000D03*
X21325000Y57250000D03*
%TD*%
D19*
%TO.C,R105*%
X58175000Y66450000D03*
X59825000Y66450000D03*
%TD*%
D21*
%TO.C,R1*%
X16500000Y31325000D03*
X16500000Y29675000D03*
%TD*%
D19*
%TO.C,R104*%
X58175000Y85350000D03*
X59825000Y85350000D03*
%TD*%
%TO.C,R28*%
X90925000Y28500000D03*
X92575000Y28500000D03*
%TD*%
D30*
%TO.C,C35*%
X71250000Y25975000D03*
X71250000Y27525000D03*
%TD*%
%TO.C,C4*%
X4250000Y45975000D03*
X4250000Y47525000D03*
%TD*%
D17*
%TO.C,R31*%
X89325000Y23250000D03*
X87675000Y23250000D03*
%TD*%
D44*
%TO.C,D6*%
X19750000Y53250000D03*
X21325000Y53250000D03*
%TD*%
D18*
%TO.C,R83*%
X38847500Y41750000D03*
X37652500Y41750000D03*
%TD*%
D45*
%TO.C,C1*%
X89975000Y15500000D03*
X91525000Y15500000D03*
%TD*%
D14*
%TO.C,R155*%
X65502500Y45350000D03*
X66697500Y45350000D03*
%TD*%
D44*
%TO.C,D5*%
X19750000Y51250000D03*
X21325000Y51250000D03*
%TD*%
D22*
%TO.C,TP17*%
X46400000Y84890000D03*
%TD*%
%TO.C,TP20*%
X53000000Y6920000D03*
%TD*%
D28*
%TO.C,R75*%
X46500000Y81542500D03*
X46500000Y82737500D03*
%TD*%
D19*
%TO.C,R113*%
X58175000Y80950000D03*
X59825000Y80950000D03*
%TD*%
D31*
%TO.C,J7*%
X14500000Y18445331D03*
D32*
X17260000Y18445331D03*
X20020000Y18445331D03*
X22780000Y18445331D03*
X25540000Y18445331D03*
X15880000Y15605331D03*
X18640000Y15605331D03*
X21400000Y15605331D03*
X24160000Y15605331D03*
D33*
X32520000Y17025331D03*
X7520000Y17025331D03*
%TD*%
D38*
%TO.C,R115*%
X54500000Y59847500D03*
X54500000Y58652500D03*
%TD*%
D52*
%TO.C,L2*%
X89062500Y31000000D03*
X86937500Y31000000D03*
%TD*%
D14*
%TO.C,R70*%
X45000000Y22500000D03*
X46195000Y22500000D03*
%TD*%
D30*
%TO.C,C55*%
X57750000Y55725000D03*
X57750000Y57275000D03*
%TD*%
D19*
%TO.C,R109*%
X58175000Y73700000D03*
X59825000Y73700000D03*
%TD*%
D38*
%TO.C,R117*%
X38840000Y13247500D03*
X38840000Y12052500D03*
%TD*%
D22*
%TO.C,TP32*%
X27750000Y53250000D03*
%TD*%
D17*
%TO.C,R23*%
X24612500Y57250000D03*
X22962500Y57250000D03*
%TD*%
D14*
%TO.C,R136*%
X61805000Y53050000D03*
X63000000Y53050000D03*
%TD*%
D17*
%TO.C,R71*%
X50575000Y76000000D03*
X48925000Y76000000D03*
%TD*%
D54*
%TO.C,C19*%
X82275000Y29250000D03*
X85225000Y29250000D03*
%TD*%
D27*
%TO.C,FB5*%
X78250000Y23625000D03*
X78250000Y25375000D03*
%TD*%
D38*
%TO.C,R116*%
X53250000Y59847500D03*
X53250000Y58652500D03*
%TD*%
D19*
%TO.C,R29*%
X87675000Y34750000D03*
X89325000Y34750000D03*
%TD*%
D15*
%TO.C,C34*%
X71250000Y21025000D03*
X71250000Y19475000D03*
%TD*%
D18*
%TO.C,R87*%
X38847500Y39250000D03*
X37652500Y39250000D03*
%TD*%
D38*
%TO.C,R114*%
X52000000Y59847500D03*
X52000000Y58652500D03*
%TD*%
D17*
%TO.C,R47*%
X63325000Y10000000D03*
X61675000Y10000000D03*
%TD*%
D22*
%TO.C,TP15*%
X43860000Y84890000D03*
%TD*%
D29*
%TO.C,R4*%
X16250000Y70175000D03*
X16250000Y71825000D03*
%TD*%
D14*
%TO.C,R140*%
X61805000Y52050000D03*
X63000000Y52050000D03*
%TD*%
%TO.C,R152*%
X61805000Y44050000D03*
X63000000Y44050000D03*
%TD*%
D21*
%TO.C,R6*%
X78000000Y10325000D03*
X78000000Y8675000D03*
%TD*%
D17*
%TO.C,R18*%
X24612500Y51250000D03*
X22962500Y51250000D03*
%TD*%
D22*
%TO.C,TP12*%
X40050000Y87430000D03*
%TD*%
D29*
%TO.C,R15*%
X6000000Y45925000D03*
X6000000Y47575000D03*
%TD*%
D49*
%TO.C,C27*%
X51750000Y25750000D03*
X50200000Y25750000D03*
%TD*%
D22*
%TO.C,TP34*%
X27750000Y57250000D03*
%TD*%
D55*
%TO.C,U8*%
X48800000Y54450000D03*
X49300000Y54450000D03*
X49800000Y54450000D03*
X50800000Y54450000D03*
X51300000Y54450000D03*
X51800000Y54450000D03*
X52300000Y54450000D03*
X52800000Y54450000D03*
X53300000Y54450000D03*
X53800000Y54450000D03*
X54300000Y54450000D03*
X55300000Y54450000D03*
X55800000Y54450000D03*
X56300000Y54450000D03*
X48300000Y53950000D03*
X48800000Y53950000D03*
X49300000Y53950000D03*
X49800000Y53950000D03*
X50800000Y53950000D03*
X51300000Y53950000D03*
X51800000Y53950000D03*
X52300000Y53950000D03*
X52800000Y53950000D03*
X53300000Y53950000D03*
X53800000Y53950000D03*
X54300000Y53950000D03*
X55300000Y53950000D03*
X55800000Y53950000D03*
X56300000Y53950000D03*
X56800000Y53950000D03*
X48300000Y53450000D03*
X48800000Y53450000D03*
X49300000Y53450000D03*
X49800000Y53450000D03*
X50800000Y53450000D03*
X51300000Y53450000D03*
X51800000Y53450000D03*
X52300000Y53450000D03*
X52800000Y53450000D03*
X53300000Y53450000D03*
X53800000Y53450000D03*
X54300000Y53450000D03*
X55300000Y53450000D03*
X55800000Y53450000D03*
X56300000Y53450000D03*
X56800000Y53450000D03*
X48300000Y52950000D03*
X48800000Y52950000D03*
X49300000Y52950000D03*
X49800000Y52950000D03*
X50800000Y52950000D03*
X51300000Y52950000D03*
X51800000Y52950000D03*
X52300000Y52950000D03*
X52800000Y52950000D03*
X53300000Y52950000D03*
X53800000Y52950000D03*
X54300000Y52950000D03*
X55300000Y52950000D03*
X55800000Y52950000D03*
X56300000Y52950000D03*
X56800000Y52950000D03*
X50300000Y52450000D03*
X50800000Y52450000D03*
X51300000Y52450000D03*
X51800000Y52450000D03*
X52300000Y52450000D03*
X52800000Y52450000D03*
X53300000Y52450000D03*
X53800000Y52450000D03*
X54300000Y52450000D03*
X54800000Y52450000D03*
X48300000Y51950000D03*
X48800000Y51950000D03*
X49300000Y51950000D03*
X49800000Y51950000D03*
X50300000Y51950000D03*
X50800000Y51950000D03*
X51300000Y51950000D03*
X51800000Y51950000D03*
X52300000Y51950000D03*
X52800000Y51950000D03*
X53300000Y51950000D03*
X53800000Y51950000D03*
X54300000Y51950000D03*
X54800000Y51950000D03*
X55300000Y51950000D03*
X55800000Y51950000D03*
X56300000Y51950000D03*
X56800000Y51950000D03*
X48300000Y51450000D03*
X48800000Y51450000D03*
X49300000Y51450000D03*
X49800000Y51450000D03*
X50300000Y51450000D03*
X50800000Y51450000D03*
X51300000Y51450000D03*
X51800000Y51450000D03*
X52300000Y51450000D03*
X52800000Y51450000D03*
X53300000Y51450000D03*
X53800000Y51450000D03*
X54300000Y51450000D03*
X54800000Y51450000D03*
X55300000Y51450000D03*
X55800000Y51450000D03*
X56300000Y51450000D03*
X56800000Y51450000D03*
X48300000Y50950000D03*
X48800000Y50950000D03*
X49300000Y50950000D03*
X49800000Y50950000D03*
X50300000Y50950000D03*
X50800000Y50950000D03*
X51300000Y50950000D03*
X51800000Y50950000D03*
X52300000Y50950000D03*
X52800000Y50950000D03*
X53300000Y50950000D03*
X53800000Y50950000D03*
X54300000Y50950000D03*
X54800000Y50950000D03*
X55300000Y50950000D03*
X55800000Y50950000D03*
X56300000Y50950000D03*
X56800000Y50950000D03*
X48300000Y50450000D03*
X48800000Y50450000D03*
X49300000Y50450000D03*
X49800000Y50450000D03*
X50300000Y50450000D03*
X50800000Y50450000D03*
X51300000Y50450000D03*
X51800000Y50450000D03*
X52300000Y50450000D03*
X52800000Y50450000D03*
X53300000Y50450000D03*
X53800000Y50450000D03*
X54300000Y50450000D03*
X54800000Y50450000D03*
X55300000Y50450000D03*
X55800000Y50450000D03*
X56300000Y50450000D03*
X56800000Y50450000D03*
X48300000Y49950000D03*
X48800000Y49950000D03*
X49300000Y49950000D03*
X49800000Y49950000D03*
X50300000Y49950000D03*
X50800000Y49950000D03*
X51300000Y49950000D03*
X51800000Y49950000D03*
X52300000Y49950000D03*
X52800000Y49950000D03*
X53300000Y49950000D03*
X53800000Y49950000D03*
X54300000Y49950000D03*
X54800000Y49950000D03*
X55300000Y49950000D03*
X55800000Y49950000D03*
X56300000Y49950000D03*
X56800000Y49950000D03*
X48300000Y49450000D03*
X48800000Y49450000D03*
X49300000Y49450000D03*
X49800000Y49450000D03*
X50300000Y49450000D03*
X50800000Y49450000D03*
X51300000Y49450000D03*
X51800000Y49450000D03*
X52300000Y49450000D03*
X52800000Y49450000D03*
X53300000Y49450000D03*
X53800000Y49450000D03*
X54300000Y49450000D03*
X54800000Y49450000D03*
X55300000Y49450000D03*
X55800000Y49450000D03*
X56300000Y49450000D03*
X56800000Y49450000D03*
X48300000Y48950000D03*
X48800000Y48950000D03*
X49300000Y48950000D03*
X49800000Y48950000D03*
X50300000Y48950000D03*
X50800000Y48950000D03*
X51300000Y48950000D03*
X51800000Y48950000D03*
X52300000Y48950000D03*
X52800000Y48950000D03*
X53300000Y48950000D03*
X53800000Y48950000D03*
X54300000Y48950000D03*
X54800000Y48950000D03*
X55300000Y48950000D03*
X55800000Y48950000D03*
X56300000Y48950000D03*
X56800000Y48950000D03*
X48300000Y48450000D03*
X48800000Y48450000D03*
X49300000Y48450000D03*
X49800000Y48450000D03*
X50300000Y48450000D03*
X50800000Y48450000D03*
X51300000Y48450000D03*
X51800000Y48450000D03*
X52300000Y48450000D03*
X52800000Y48450000D03*
X53300000Y48450000D03*
X53800000Y48450000D03*
X54300000Y48450000D03*
X54800000Y48450000D03*
X55300000Y48450000D03*
X55800000Y48450000D03*
X56300000Y48450000D03*
X56800000Y48450000D03*
X50300000Y47950000D03*
X50800000Y47950000D03*
X51300000Y47950000D03*
X51800000Y47950000D03*
X52300000Y47950000D03*
X52800000Y47950000D03*
X53300000Y47950000D03*
X53800000Y47950000D03*
X54300000Y47950000D03*
X54800000Y47950000D03*
X48300000Y47450000D03*
X48800000Y47450000D03*
X49300000Y47450000D03*
X52800000Y47450000D03*
X55800000Y47450000D03*
X56300000Y47450000D03*
X56800000Y47450000D03*
X48300000Y46950000D03*
X48800000Y46950000D03*
X49300000Y46950000D03*
X49800000Y46950000D03*
X50300000Y46950000D03*
X50800000Y46950000D03*
X51300000Y46950000D03*
X51800000Y46950000D03*
X52300000Y46950000D03*
X52800000Y46950000D03*
X53300000Y46950000D03*
X53800000Y46950000D03*
X54300000Y46950000D03*
X54800000Y46950000D03*
X55300000Y46950000D03*
X55800000Y46950000D03*
X56300000Y46950000D03*
X56800000Y46950000D03*
X48300000Y46450000D03*
X48800000Y46450000D03*
X49300000Y46450000D03*
X49800000Y46450000D03*
X50300000Y46450000D03*
X50800000Y46450000D03*
X51300000Y46450000D03*
X51800000Y46450000D03*
X52300000Y46450000D03*
X52800000Y46450000D03*
X53300000Y46450000D03*
X53800000Y46450000D03*
X54300000Y46450000D03*
X54800000Y46450000D03*
X55300000Y46450000D03*
X55800000Y46450000D03*
X56300000Y46450000D03*
X56800000Y46450000D03*
X48800000Y45950000D03*
X49300000Y45950000D03*
X49800000Y45950000D03*
X50300000Y45950000D03*
X50800000Y45950000D03*
X51300000Y45950000D03*
X51800000Y45950000D03*
X52300000Y45950000D03*
X52800000Y45950000D03*
X53300000Y45950000D03*
X53800000Y45950000D03*
X54300000Y45950000D03*
X54800000Y45950000D03*
X55300000Y45950000D03*
X55800000Y45950000D03*
X56300000Y45950000D03*
%TD*%
D22*
%TO.C,TP39*%
X66750000Y69500000D03*
%TD*%
D30*
%TO.C,C38*%
X47000000Y74225000D03*
X47000000Y75775000D03*
%TD*%
D22*
%TO.C,TP5*%
X45270000Y7300000D03*
%TD*%
D21*
%TO.C,R50*%
X65500000Y17075000D03*
X65500000Y15425000D03*
%TD*%
%TO.C,R65*%
X60500000Y37325000D03*
X60500000Y35675000D03*
%TD*%
D28*
%TO.C,R79*%
X45250000Y81542500D03*
X45250000Y82737500D03*
%TD*%
D38*
%TO.C,R122*%
X40090000Y13247500D03*
X40090000Y12052500D03*
%TD*%
D21*
%TO.C,R101*%
X58750000Y37325000D03*
X58750000Y35675000D03*
%TD*%
%TO.C,R92*%
X58750000Y40575000D03*
X58750000Y38925000D03*
%TD*%
D14*
%TO.C,R133*%
X65502500Y54550000D03*
X66697500Y54550000D03*
%TD*%
D56*
%TO.C,U7*%
X47095000Y66775000D03*
X48365000Y66775000D03*
X49635000Y66775000D03*
X50905000Y66775000D03*
X50905000Y71725000D03*
X49635000Y71725000D03*
X48365000Y71725000D03*
X47095000Y71725000D03*
%TD*%
D29*
%TO.C,R24*%
X6000000Y70925000D03*
X6000000Y72575000D03*
%TD*%
D38*
%TO.C,R118*%
X43840000Y13247500D03*
X43840000Y12052500D03*
%TD*%
D22*
%TO.C,TP22*%
X30250000Y43250000D03*
%TD*%
%TO.C,TP26*%
X72300000Y12500000D03*
%TD*%
D47*
%TO.C,U1*%
X89212500Y36347500D03*
X89212500Y36847500D03*
X89212500Y37347500D03*
X87787500Y37347500D03*
X87787500Y36847500D03*
X87787500Y36347500D03*
%TD*%
D14*
%TO.C,R60*%
X47402500Y20750000D03*
X48597500Y20750000D03*
%TD*%
%TO.C,R151*%
X65502500Y46350000D03*
X66697500Y46350000D03*
%TD*%
D19*
%TO.C,R30*%
X90925000Y34750000D03*
X92575000Y34750000D03*
%TD*%
D21*
%TO.C,R62*%
X65750000Y37325000D03*
X65750000Y35675000D03*
%TD*%
D14*
%TO.C,R163*%
X61802500Y59050000D03*
X62997500Y59050000D03*
%TD*%
D30*
%TO.C,C8*%
X4000000Y70975000D03*
X4000000Y72525000D03*
%TD*%
D17*
%TO.C,R12*%
X24612500Y43250000D03*
X22962500Y43250000D03*
%TD*%
D28*
%TO.C,R74*%
X44000000Y81542500D03*
X44000000Y82737500D03*
%TD*%
D49*
%TO.C,C58*%
X79400000Y60550000D03*
X77850000Y60550000D03*
%TD*%
D15*
%TO.C,C3*%
X4250000Y30525000D03*
X4250000Y28975000D03*
%TD*%
D21*
%TO.C,R38*%
X66750000Y67325000D03*
X66750000Y65675000D03*
%TD*%
D15*
%TO.C,C6*%
X4250000Y54525000D03*
X4250000Y52975000D03*
%TD*%
D57*
%TO.C,U11*%
X70200000Y46594500D03*
X71000000Y46594500D03*
X71800000Y46594500D03*
X72600000Y46594500D03*
X73400000Y46594500D03*
X74200000Y46594500D03*
X75000000Y46594500D03*
X75800000Y46594500D03*
X76600000Y46594500D03*
X77400000Y46594500D03*
X78200000Y46594500D03*
X79000000Y46594500D03*
X79800000Y46594500D03*
X80600000Y46594500D03*
X81400000Y46594500D03*
X82200000Y46594500D03*
X83000000Y46594500D03*
X83800000Y46594500D03*
X84600000Y46594500D03*
X85400000Y46594500D03*
X86200000Y46594500D03*
X87000000Y46594500D03*
X87000000Y57905500D03*
X86200000Y57905500D03*
X85400000Y57905500D03*
X84600000Y57905500D03*
X83800000Y57905500D03*
X83000000Y57905500D03*
X82200000Y57905500D03*
X81400000Y57905500D03*
X80600000Y57905500D03*
X79800000Y57905500D03*
X79000000Y57905500D03*
X78200000Y57905500D03*
X77400000Y57905500D03*
X76600000Y57905500D03*
X75800000Y57905500D03*
X75000000Y57905500D03*
X74200000Y57905500D03*
X73400000Y57905500D03*
X72600000Y57905500D03*
X71800000Y57905500D03*
X71000000Y57905500D03*
X70200000Y57905500D03*
%TD*%
D28*
%TO.C,R73*%
X49000000Y81542500D03*
X49000000Y82737500D03*
%TD*%
D19*
%TO.C,R106*%
X58175000Y68200000D03*
X59825000Y68200000D03*
%TD*%
D22*
%TO.C,TP29*%
X30250000Y47250000D03*
%TD*%
D58*
%TO.C,U9*%
X70687500Y42155000D03*
X70687500Y40885000D03*
X70687500Y39615000D03*
X70687500Y38345000D03*
X76012500Y38345000D03*
X76012500Y39615000D03*
X76012500Y40885000D03*
X76012500Y42155000D03*
D59*
X73350000Y40250000D03*
%TD*%
D18*
%TO.C,R56*%
X48597500Y25000000D03*
X47402500Y25000000D03*
%TD*%
D45*
%TO.C,C57*%
X77975000Y44250000D03*
X79525000Y44250000D03*
%TD*%
D22*
%TO.C,TP9*%
X40190000Y7300000D03*
%TD*%
D30*
%TO.C,C23*%
X67250000Y15450000D03*
X67250000Y17000000D03*
%TD*%
D38*
%TO.C,R121*%
X48840000Y13247500D03*
X48840000Y12052500D03*
%TD*%
D60*
%TO.C,X1*%
X52375000Y64100000D03*
X52375000Y61900000D03*
X54125000Y61900000D03*
X54125000Y64100000D03*
%TD*%
D22*
%TO.C,TP31*%
X30250000Y51250000D03*
%TD*%
D29*
%TO.C,R44*%
X65500000Y11675000D03*
X65500000Y13325000D03*
%TD*%
D14*
%TO.C,R157*%
X61805000Y55050000D03*
X63000000Y55050000D03*
%TD*%
D17*
%TO.C,R20*%
X24612500Y53250000D03*
X22962500Y53250000D03*
%TD*%
D14*
%TO.C,R146*%
X65502500Y49450000D03*
X66697500Y49450000D03*
%TD*%
D21*
%TO.C,R98*%
X53500000Y40575000D03*
X53500000Y38925000D03*
%TD*%
D19*
%TO.C,R107*%
X58175000Y69950000D03*
X59825000Y69950000D03*
%TD*%
D14*
%TO.C,R132*%
X65502500Y57550000D03*
X66697500Y57550000D03*
%TD*%
D54*
%TO.C,C17*%
X82275000Y31750000D03*
X85225000Y31750000D03*
%TD*%
D19*
%TO.C,R34*%
X90925000Y25000000D03*
X92575000Y25000000D03*
%TD*%
D18*
%TO.C,R84*%
X38847500Y40500000D03*
X37652500Y40500000D03*
%TD*%
D14*
%TO.C,R135*%
X65502500Y56550000D03*
X66697500Y56550000D03*
%TD*%
D61*
%TO.C,SW2*%
X20000000Y71750000D03*
D62*
X20000000Y66750000D03*
X20000000Y69250000D03*
D63*
X27500000Y74850000D03*
X27500000Y63650000D03*
D62*
X34500000Y66750000D03*
X34500000Y71750000D03*
%TD*%
D30*
%TO.C,C47*%
X48750000Y59725000D03*
X48750000Y61275000D03*
%TD*%
D18*
%TO.C,R59*%
X48597500Y23750000D03*
X47402500Y23750000D03*
%TD*%
D22*
%TO.C,TP28*%
X27750000Y45250000D03*
%TD*%
%TO.C,TP1*%
X53000000Y82210000D03*
%TD*%
D14*
%TO.C,R144*%
X65502500Y50550000D03*
X66697500Y50550000D03*
%TD*%
D44*
%TO.C,D2*%
X19750000Y45250000D03*
X21325000Y45250000D03*
%TD*%
D29*
%TO.C,R100*%
X55250000Y35675000D03*
X55250000Y37325000D03*
%TD*%
D15*
%TO.C,C41*%
X48250000Y40525000D03*
X48250000Y38975000D03*
%TD*%
D21*
%TO.C,R96*%
X50000000Y40575000D03*
X50000000Y38925000D03*
%TD*%
D38*
%TO.C,R120*%
X46340000Y13247500D03*
X46340000Y12052500D03*
%TD*%
D18*
%TO.C,R57*%
X48597500Y22500000D03*
X47402500Y22500000D03*
%TD*%
D22*
%TO.C,TP21*%
X48940000Y84890000D03*
%TD*%
D21*
%TO.C,R19*%
X6000000Y54575000D03*
X6000000Y52925000D03*
%TD*%
D49*
%TO.C,C30*%
X51750000Y19250000D03*
X50200000Y19250000D03*
%TD*%
D18*
%TO.C,R61*%
X51572500Y20750000D03*
X50377500Y20750000D03*
%TD*%
D14*
%TO.C,R69*%
X44902500Y25000000D03*
X46097500Y25000000D03*
%TD*%
%TO.C,R159*%
X61805000Y58050000D03*
X63000000Y58050000D03*
%TD*%
D22*
%TO.C,TP18*%
X47670000Y87430000D03*
%TD*%
%TO.C,TP35*%
X96400000Y73400000D03*
%TD*%
D14*
%TO.C,R137*%
X61805000Y51050000D03*
X63000000Y51050000D03*
%TD*%
D30*
%TO.C,C54*%
X47000000Y59725000D03*
X47000000Y61275000D03*
%TD*%
D64*
%TO.C,C10*%
X93975000Y30750000D03*
X91025000Y30750000D03*
%TD*%
D15*
%TO.C,C51*%
X51750000Y43800000D03*
X51750000Y42250000D03*
%TD*%
D14*
%TO.C,R147*%
X65502500Y47350000D03*
X66697500Y47350000D03*
%TD*%
D54*
%TO.C,C25*%
X49525000Y17000000D03*
X52475000Y17000000D03*
%TD*%
D22*
%TO.C,TP11*%
X38780000Y84890000D03*
%TD*%
D17*
%TO.C,R66*%
X50575000Y74250000D03*
X48925000Y74250000D03*
%TD*%
D65*
%TO.C,Q2*%
X89375000Y41562500D03*
X91275000Y41562500D03*
X90325000Y43437500D03*
%TD*%
D14*
%TO.C,R67*%
X45000000Y23750000D03*
X46195000Y23750000D03*
%TD*%
D17*
%TO.C,R33*%
X89325000Y25000000D03*
X87675000Y25000000D03*
%TD*%
D19*
%TO.C,R72*%
X70787500Y44145000D03*
X72437500Y44145000D03*
%TD*%
D21*
%TO.C,R25*%
X72750000Y62075000D03*
X72750000Y60425000D03*
%TD*%
D14*
%TO.C,R142*%
X61805000Y50050000D03*
X63000000Y50050000D03*
%TD*%
D21*
%TO.C,R35*%
X77100000Y76725000D03*
X77100000Y75075000D03*
%TD*%
D49*
%TO.C,C14*%
X89275000Y33000000D03*
X87725000Y33000000D03*
%TD*%
D28*
%TO.C,R80*%
X42750000Y81542500D03*
X42750000Y82737500D03*
%TD*%
D54*
%TO.C,C18*%
X82275000Y38750000D03*
X85225000Y38750000D03*
%TD*%
D48*
%TO.C,D12*%
X57000000Y37287500D03*
X57000000Y35712500D03*
%TD*%
D14*
%TO.C,R145*%
X65502500Y51550000D03*
X66697500Y51550000D03*
%TD*%
D49*
%TO.C,C26*%
X52525000Y14750000D03*
X50975000Y14750000D03*
%TD*%
D14*
%TO.C,R149*%
X61805000Y47050000D03*
X63000000Y47050000D03*
%TD*%
D21*
%TO.C,R5*%
X79750000Y10325000D03*
X79750000Y8675000D03*
%TD*%
D66*
%TO.C,C11*%
X84200000Y25000000D03*
X82300000Y25000000D03*
%TD*%
D49*
%TO.C,C15*%
X89275000Y26750000D03*
X87725000Y26750000D03*
%TD*%
D15*
%TO.C,C53*%
X58750000Y47275000D03*
X58750000Y45725000D03*
%TD*%
D38*
%TO.C,R119*%
X41340000Y13247500D03*
X41340000Y12052500D03*
%TD*%
D19*
%TO.C,R103*%
X58175000Y83700000D03*
X59825000Y83700000D03*
%TD*%
D21*
%TO.C,R46*%
X59750000Y12325000D03*
X59750000Y10675000D03*
%TD*%
D30*
%TO.C,C40*%
X48750000Y56475000D03*
X48750000Y58025000D03*
%TD*%
D14*
%TO.C,R68*%
X47402500Y19500000D03*
X48597500Y19500000D03*
%TD*%
D22*
%TO.C,TP33*%
X30250000Y55250000D03*
%TD*%
D17*
%TO.C,R37*%
X87325000Y41500000D03*
X85675000Y41500000D03*
%TD*%
D44*
%TO.C,D3*%
X19750000Y47250000D03*
X21325000Y47250000D03*
%TD*%
D67*
%TO.C,Q1*%
X51800000Y36937500D03*
X49900000Y36937500D03*
X50850000Y35062500D03*
%TD*%
D44*
%TO.C,D4*%
X19800000Y49250000D03*
X21375000Y49250000D03*
%TD*%
D14*
%TO.C,R154*%
X61805000Y43050000D03*
X63000000Y43050000D03*
%TD*%
D22*
%TO.C,TP4*%
X46540000Y9840000D03*
%TD*%
D21*
%TO.C,R91*%
X62250000Y40575000D03*
X62250000Y38925000D03*
%TD*%
%TO.C,R97*%
X51750000Y40575000D03*
X51750000Y38925000D03*
%TD*%
D14*
%TO.C,R162*%
X61802500Y60050000D03*
X62997500Y60050000D03*
%TD*%
%TO.C,R160*%
X61802500Y61050000D03*
X62997500Y61050000D03*
%TD*%
D22*
%TO.C,TP27*%
X72750000Y64250000D03*
%TD*%
D14*
%TO.C,R141*%
X61805000Y49050000D03*
X63000000Y49050000D03*
%TD*%
D22*
%TO.C,TP8*%
X41460000Y9840000D03*
%TD*%
D34*
%TO.C,C13*%
X80200000Y23550000D03*
X80200000Y25450000D03*
%TD*%
D17*
%TO.C,R36*%
X87325000Y43250000D03*
X85675000Y43250000D03*
%TD*%
D16*
%TO.C,D9*%
X84537500Y60500000D03*
X82962500Y60500000D03*
%TD*%
D14*
%TO.C,R150*%
X65502500Y48350000D03*
X66697500Y48350000D03*
%TD*%
D38*
%TO.C,R124*%
X45090000Y13247500D03*
X45090000Y12052500D03*
%TD*%
D68*
%TO.C,U10*%
X84150000Y22887500D03*
X82250000Y22887500D03*
X83200000Y20612500D03*
%TD*%
D22*
%TO.C,TP19*%
X53000000Y87290000D03*
%TD*%
%TO.C,TP6*%
X44000000Y9840000D03*
%TD*%
%TO.C,TP16*%
X45130000Y87430000D03*
%TD*%
%TO.C,TP38*%
X83250000Y41500000D03*
%TD*%
%TO.C,TP37*%
X96300000Y79900000D03*
%TD*%
%TO.C,TP14*%
X42590000Y87430000D03*
%TD*%
D15*
%TO.C,C56*%
X50500000Y64525000D03*
X50500000Y62975000D03*
%TD*%
D22*
%TO.C,TP2*%
X49080000Y9840000D03*
%TD*%
D17*
%TO.C,R13*%
X24612500Y45250000D03*
X22962500Y45250000D03*
%TD*%
D18*
%TO.C,R82*%
X38847500Y59500000D03*
X37652500Y59500000D03*
%TD*%
D30*
%TO.C,C5*%
X55250000Y38975000D03*
X55250000Y40525000D03*
%TD*%
D14*
%TO.C,R139*%
X65502500Y52550000D03*
X66697500Y52550000D03*
%TD*%
D28*
%TO.C,R55*%
X60500000Y33152500D03*
X60500000Y34347500D03*
%TD*%
D29*
%TO.C,R99*%
X57000000Y32425000D03*
X57000000Y34075000D03*
%TD*%
D21*
%TO.C,R94*%
X57000000Y40575000D03*
X57000000Y38925000D03*
%TD*%
D38*
%TO.C,R123*%
X42590000Y13247500D03*
X42590000Y12052500D03*
%TD*%
D15*
%TO.C,C49*%
X57750000Y60525000D03*
X57750000Y58975000D03*
%TD*%
D30*
%TO.C,C29*%
X67250000Y29475000D03*
X67250000Y31025000D03*
%TD*%
D54*
%TO.C,C33*%
X48750000Y29750000D03*
X51700000Y29750000D03*
%TD*%
D14*
%TO.C,R161*%
X61802500Y56050000D03*
X62997500Y56050000D03*
%TD*%
D69*
%TO.C,C2*%
X89800000Y17750000D03*
X91700000Y17750000D03*
%TD*%
D18*
%TO.C,R86*%
X38847500Y38000000D03*
X37652500Y38000000D03*
%TD*%
D15*
%TO.C,C31*%
X58000000Y15525000D03*
X58000000Y13975000D03*
%TD*%
D64*
%TO.C,C9*%
X93975000Y38750000D03*
X91025000Y38750000D03*
%TD*%
D45*
%TO.C,C39*%
X74437500Y44145000D03*
X75987500Y44145000D03*
%TD*%
D70*
%TO.C,J5*%
X72919500Y83020000D03*
X75209500Y83020000D03*
X77499500Y83020000D03*
X79789500Y83020000D03*
X82079500Y83020000D03*
X71774500Y85000000D03*
X74064500Y85000000D03*
X76354500Y85000000D03*
X78644500Y85000000D03*
X80934500Y85000000D03*
X72919500Y86980000D03*
X75209500Y86980000D03*
X77499500Y86980000D03*
X79789500Y86980000D03*
X82079500Y86980000D03*
D71*
X90000000Y85000000D03*
X65000000Y85000000D03*
%TD*%
D44*
%TO.C,D7*%
X19750000Y55250000D03*
X21325000Y55250000D03*
%TD*%
D17*
%TO.C,R58*%
X51800000Y24000000D03*
X50150000Y24000000D03*
%TD*%
D18*
%TO.C,R85*%
X38847500Y36750000D03*
X37652500Y36750000D03*
%TD*%
D28*
%TO.C,R77*%
X39000000Y81542500D03*
X39000000Y82737500D03*
%TD*%
%TO.C,R78*%
X47750000Y81542500D03*
X47750000Y82737500D03*
%TD*%
D14*
%TO.C,R148*%
X61805000Y46050000D03*
X63000000Y46050000D03*
%TD*%
D21*
%TO.C,R26*%
X96400000Y71125000D03*
X96400000Y69475000D03*
%TD*%
D72*
%TO.C,D13*%
X84187020Y75327483D03*
X82612980Y75272517D03*
%TD*%
D28*
%TO.C,R53*%
X64000000Y33152500D03*
X64000000Y34347500D03*
%TD*%
D73*
%TO.C,Y1*%
X69200000Y15425000D03*
X71300000Y15425000D03*
X71300000Y17075000D03*
X69200000Y17075000D03*
%TD*%
D14*
%TO.C,R126*%
X65502500Y42350000D03*
X66697500Y42350000D03*
%TD*%
D54*
%TO.C,C16*%
X82275000Y36250000D03*
X85225000Y36250000D03*
%TD*%
D17*
%TO.C,R51*%
X51800000Y22250000D03*
X50150000Y22250000D03*
%TD*%
D15*
%TO.C,C46*%
X58750000Y44025000D03*
X58750000Y42475000D03*
%TD*%
D22*
%TO.C,TP36*%
X77100000Y78900000D03*
%TD*%
D20*
%TO.C,FB3*%
X72875000Y26000000D03*
X74625000Y26000000D03*
%TD*%
D14*
%TO.C,R127*%
X61805000Y42050000D03*
X63000000Y42050000D03*
%TD*%
D21*
%TO.C,R63*%
X64000000Y37325000D03*
X64000000Y35675000D03*
%TD*%
D17*
%TO.C,R14*%
X24612500Y47250000D03*
X22962500Y47250000D03*
%TD*%
D61*
%TO.C,SW1*%
X20000000Y34750000D03*
D62*
X20000000Y29750000D03*
X20000000Y32250000D03*
D63*
X27500000Y37850000D03*
X27500000Y26650000D03*
D62*
X34500000Y29750000D03*
X34500000Y34750000D03*
%TD*%
D14*
%TO.C,R129*%
X65502500Y44350000D03*
X66697500Y44350000D03*
%TD*%
D19*
%TO.C,R112*%
X58175000Y79200000D03*
X59825000Y79200000D03*
%TD*%
M02*
